<?xml version="1.0" encoding="UTF-8"?>
<svg width="24px" height="24px" viewBox="0 0 24 24" version="1.1" xmlns="http://www.w3.org/2000/svg" xmlns:xlink="http://www.w3.org/1999/xlink">
    <title>3014EC9B-482A-4AC1-ABA8-892037E427B8</title>
    <g id="🛒E-commerce-screens" stroke="none" stroke-width="1" fill="none" fill-rule="evenodd">
        <g id="Catalog" transform="translate(-1232.000000, -16.000000)" fill="#000000">
            <g id="2.-Icons/1.-Main/Large/Search" transform="translate(1232.000000, 16.000000)">
                <path d="M14.7702703,2 C19.3154245,2 23,5.6845755 23,10.2297297 C23,14.774884 19.3154245,18.4594595 14.7702703,18.4594595 C12.8043107,18.4594595 10.9993573,17.7701101 9.58393948,16.6199408 L3.45334767,22.750645 C3.12087428,23.0831183 2.58182842,23.0831183 2.24935504,22.750645 C1.91688165,22.4181716 1.91688165,21.8791257 2.24935504,21.5466523 L2.24935504,21.5466523 L8.38005922,15.4160605 C7.2298899,14.0006427 6.54054054,12.1956893 6.54054054,10.2297297 C6.54054054,5.6845755 10.225116,2 14.7702703,2 Z M14.7702703,3.7027027 C11.1654928,3.7027027 8.24324324,6.62495224 8.24324324,10.2297297 C8.24324324,13.8345072 11.1654928,16.7567568 14.7702703,16.7567568 C18.3750478,16.7567568 21.2972973,13.8345072 21.2972973,10.2297297 C21.2972973,6.62495224 18.3750478,3.7027027 14.7702703,3.7027027 Z" id="Icon" transform="translate(12.500000, 12.500000) scale(-1, 1) translate(-12.500000, -12.500000) "></path>
            </g>
        </g>
    </g>
</svg>