<svg xmlns="http://www.w3.org/2000/svg" width="24" height="24" viewBox="0 0 24 24">
    <g fill="none" fill-rule="evenodd">
        <g fill="#000">
            <g>
                <path d="M8.17 18.286c1.277 0 2.313 1.055 2.313 2.357C10.483 21.945 9.447 23 8.17 23c-1.278 0-2.314-1.055-2.314-2.357 0-1.302 1.036-2.357 2.314-2.357zm9.254 0c1.278 0 2.314 1.055 2.314 2.357 0 .953-.564 1.813-1.428 2.178-.865.364-1.86.163-2.522-.511-.662-.675-.86-1.688-.501-2.57.358-.88 1.201-1.454 2.137-1.454zM8.17 19.857c-.426 0-.772.352-.772.786 0 .434.346.786.772.786.426 0 .77-.352.77-.786 0-.434-.344-.786-.77-.786zm9.254 0c-.426 0-.771.352-.771.786 0 .434.345.786.771.786.426 0 .771-.352.771-.786 0-.434-.345-.786-.77-.786zM3.111 1c1.06 0 1.986.735 2.244 1.784l.331 1.359H23l-1.542 6.333c-.212.856-.876 1.52-1.72 1.72L8.316 14.94l.093.392c.087.36.408.608.77.598h10.559V17.5H9.18c-1.07.01-2.007-.727-2.267-1.784l-.286-1.17L3.882 3.169c-.087-.36-.408-.608-.771-.598H2V1zm17.953 4.714H6.072l1.89 7.7 11.452-2.742c.283-.065.507-.287.578-.573l1.072-4.385z" transform="translate(-1276 -16) translate(1276 16)"/>
            </g>
        </g>
    </g>
</svg>
