<svg xmlns="http://www.w3.org/2000/svg" width="24" height="25" viewBox="0 0 24 25">
    <g fill="none" fill-rule="evenodd">
        <g fill="#E6E6EB">
            <g>
                <g>
                    <path d="M7.86 8.117c.166.138.184.353.055.508l-.055.055L3.873 12l18.65.001c.264 0 .477.224.477.5 0 .245-.168.45-.39.492l-.086.008-18.846-.001 4.174 3.314c.17.135.194.35.07.507l-.054.056c-.162.142-.42.163-.61.059l-.067-.045-5.043-4.004c-.173-.137-.195-.356-.064-.514l.056-.056 5.043-4.2c.187-.155.49-.155.677 0z" transform="translate(-1232 -751) translate(140 750) translate(1092 2)"/>
                </g>
            </g>
        </g>
    </g>
</svg>
