<svg xmlns="http://www.w3.org/2000/svg" width="24" height="24" viewBox="0 0 24 24">
    <g fill="none" fill-rule="evenodd">
        <g fill="#000">
            <g>
                <g>
                    <path d="M11.999 1.999h.28c2.46 0 2.813.014 3.841.06 1.065.05 1.792.218 2.43.465.658.255 1.214.597 1.77 1.153.557.556.899 1.114 1.155 1.772.246.636.415 1.362.465 2.427.04.914.056 1.295.06 3.096v2.055c-.004 1.8-.02 2.181-.06 3.095-.05 1.065-.22 1.792-.465 2.428-.256.657-.598 1.215-1.154 1.771-.556.556-1.113.899-1.77 1.154-.637.247-1.364.416-2.43.465-.99.045-1.353.058-3.575.06h-1.094c-2.221-.002-2.585-.015-3.576-.06-1.064-.049-1.791-.218-2.428-.465-.657-.255-1.215-.598-1.77-1.154-.557-.556-.898-1.114-1.154-1.772-.247-.635-.416-1.362-.465-2.427C2.011 15.055 2 14.716 2 12s.012-3.057.06-4.124c.048-1.064.217-1.791.465-2.427.256-.658.598-1.216 1.154-1.772.556-.556 1.114-.898 1.772-1.153.635-.247 1.362-.416 2.427-.465C8.944 2.011 9.284 2 12 2H12zm-.896 1.8c-1.864.002-2.221.014-3.144.056-.975.045-1.504.207-1.857.345-.466.181-.8.398-1.15.748-.35.35-.567.683-.748 1.15-.137.353-.3.882-.345 1.857-.047 1.054-.057 1.37-.057 4.04s.01 2.987.057 4.041c.045.975.208 1.505.345 1.857.182.467.398.8.748 1.15.35.35.684.566 1.15.747.353.137.882.3 1.857.345.976.044 1.32.056 3.485.058h1.112c2.166-.002 2.51-.014 3.486-.058.975-.045 1.504-.207 1.856-.345.467-.181.8-.398 1.15-.748.35-.35.567-.682.748-1.148.137-.353.3-.882.344-1.857.043-.937.056-1.291.058-3.233v-1.613c-.002-1.942-.015-2.296-.058-3.234-.044-.975-.207-1.504-.344-1.856-.182-.467-.398-.8-.748-1.15-.35-.35-.683-.567-1.15-.748-.352-.137-.881-.3-1.856-.344-.899-.041-1.261-.054-3-.057L11.527 3.8h-.424zM12 6.864c2.836 0 5.135 2.3 5.135 5.136 0 2.836-2.298 5.134-5.135 5.134-2.836 0-5.135-2.298-5.135-5.134 0-2.837 2.3-5.136 5.135-5.136zm0 1.802c-1.84 0-3.333 1.492-3.333 3.334 0 1.84 1.492 3.333 3.333 3.333 1.841 0 3.334-1.492 3.334-3.333 0-1.842-1.493-3.334-3.334-3.334zm5.339-3.205c.662 0 1.2.538 1.2 1.2 0 .663-.538 1.2-1.2 1.2-.663 0-1.2-.537-1.2-1.2 0-.662.537-1.2 1.2-1.2z" transform="translate(-664 -2119) translate(0 1830) translate(664 289)"/>
                </g>
            </g>
        </g>
    </g>
</svg>
