<svg xmlns="http://www.w3.org/2000/svg" width="111" height="33" viewBox="0 0 111 33">
    <g fill="none" fill-rule="evenodd">
        <g fill="#000" fill-rule="nonzero">
            <g>
                <path d="M6.58 22.28c1.613 0 2.883-.397 3.81-1.19.927-.793 1.39-1.917 1.39-3.37H9.24c0 .707-.233 1.283-.7 1.73-.467.447-1.16.67-2.08.67-.92 0-1.647-.41-2.18-1.23-.533-.82-.8-1.96-.8-3.42s.3-2.603.9-3.43c.56-.76 1.293-1.14 2.2-1.14.667 0 1.223.21 1.67.63.447.42.777.97.99 1.65l2.52-.46c-.253-1.227-.8-2.18-1.64-2.86-.427-.347-.933-.617-1.52-.81-.587-.193-1.28-.29-2.08-.29-1.653 0-2.987.573-4 1.72-1.053 1.2-1.58 2.867-1.58 5 0 2.107.513 3.773 1.54 5 1.013 1.2 2.38 1.8 4.1 1.8zm9.04-.28l.92-2.8h4.82l.9 2.8h2.5L20.5 9.02h-2.96L13.12 22h2.5zm5.16-4.58h-3.64l1.84-5.58 1.8 5.58zm10.8 4.86c1.627 0 2.88-.343 3.76-1.03.88-.687 1.32-1.617 1.32-2.79 0-.853-.26-1.563-.78-2.13s-1.26-1.037-2.22-1.41l-2.82-1.1c-.52-.187-.903-.39-1.15-.61-.247-.22-.37-.523-.37-.91s.19-.717.57-.99c.38-.273.91-.41 1.59-.41 1.387 0 2.187.567 2.4 1.7h2.34c-.12-1.213-.577-2.157-1.37-2.83-.793-.673-1.92-1.01-3.38-1.01s-2.617.327-3.47.98c-.84.627-1.26 1.48-1.26 2.56 0 .92.267 1.64.8 2.16.533.52 1.3.973 2.3 1.36l2.58 1.02c.573.213.987.443 1.24.69.253.247.38.6.38 1.06 0 .46-.233.827-.7 1.1-.467.273-.973.41-1.52.41s-.987-.047-1.32-.14c-1.107-.28-1.66-.953-1.66-2.02H26.5c.053 1.413.58 2.507 1.58 3.28.893.707 2.06 1.06 3.5 1.06zm12.76 0c1.627 0 2.88-.343 3.76-1.03.88-.687 1.32-1.617 1.32-2.79 0-.853-.26-1.563-.78-2.13s-1.26-1.037-2.22-1.41l-2.82-1.1c-.52-.187-.903-.39-1.15-.61-.247-.22-.37-.523-.37-.91s.19-.717.57-.99c.38-.273.91-.41 1.59-.41 1.387 0 2.187.567 2.4 1.7h2.34c-.12-1.213-.577-2.157-1.37-2.83-.793-.673-1.92-1.01-3.38-1.01s-2.617.327-3.47.98c-.84.627-1.26 1.48-1.26 2.56 0 .92.267 1.64.8 2.16.533.52 1.3.973 2.3 1.36l2.58 1.02c.573.213.987.443 1.24.69.253.247.38.6.38 1.06 0 .46-.233.827-.7 1.1-.467.273-.973.41-1.52.41s-.987-.047-1.32-.14c-1.107-.28-1.66-.953-1.66-2.02h-2.34c.053 1.413.58 2.507 1.58 3.28.893.707 2.06 1.06 3.5 1.06zm10.6-.28V9.02h-2.36V22h2.36zm8.68.28c1.8 0 3.22-.56 4.26-1.68 1.093-1.2 1.64-2.9 1.64-5.1 0-2.187-.547-3.867-1.64-5.04-.52-.56-1.14-.983-1.86-1.27-.72-.287-1.513-.43-2.38-.43-1.813 0-3.233.553-4.26 1.66-1.093 1.173-1.64 2.867-1.64 5.08 0 2.187.547 3.873 1.64 5.06 1.04 1.147 2.453 1.72 4.24 1.72zm.02-2.14c-1.053 0-1.893-.397-2.52-1.19-.627-.793-.94-1.933-.94-3.42 0-1.487.313-2.633.94-3.44.627-.807 1.467-1.21 2.52-1.21s1.89.403 2.51 1.21c.62.807.93 1.957.93 3.45 0 1.48-.31 2.617-.93 3.41-.62.793-1.457 1.19-2.51 1.19zm11 1.86v-4.72h2.2c1.467 0 2.61-.357 3.43-1.07.82-.713 1.23-1.733 1.23-3.06s-.41-2.347-1.23-3.06c-.82-.713-1.963-1.07-3.43-1.07h-4.58V22h2.38zm2.2-6.78h-2.2v-4.16h2.2c.733 0 1.287.197 1.66.59.373.393.56.893.56 1.5s-.187 1.103-.56 1.49c-.373.387-.927.58-1.66.58zM92.28 22v-2.06h-6v-3.42h5.62v-2.04h-5.62v-3.42h6V9.02h-8.36V22h8.36zm5.74 0V9.02h-2.36V22h2.36zm4.8 0l.92-2.8h4.82l.9 2.8h2.5L107.7 9.02h-2.96L100.32 22h2.5zm5.16-4.58h-3.64l1.84-5.58 1.8 5.58z" transform="translate(-665 -12) translate(665 12)"/>
            </g>
        </g>
    </g>
</svg>
