<svg xmlns="http://www.w3.org/2000/svg" width="24" height="24" viewBox="0 0 24 24">
    <g fill="none" fill-rule="evenodd">
        <g fill="#000">
            <g>
                <path d="M14.77 2C19.315 2 23 5.685 23 10.23s-3.685 8.23-8.23 8.23c-1.966 0-3.77-.69-5.186-1.84l-6.13 6.13c-.333.333-.872.333-1.205 0-.332-.332-.332-.87 0-1.203l6.131-6.13C7.23 14 6.54 12.195 6.54 10.23 6.54 5.685 10.226 2 14.77 2zm0 1.703c-3.605 0-6.527 2.922-6.527 6.527s2.922 6.527 6.527 6.527 6.527-2.922 6.527-6.527-2.922-6.527-6.527-6.527z" transform="translate(-1232 -16) translate(1232 16) matrix(-1 0 0 1 25 0)"/>
            </g>
        </g>
    </g>
</svg>
