<svg xmlns="http://www.w3.org/2000/svg" width="24" height="24" viewBox="0 0 24 24">
    <g fill="none" fill-rule="evenodd">
        <g fill="#000">
            <g>
                <g>
                    <g>
                        <path d="M12.042 2c2.664.001 5.164 1.038 7.044 2.92 1.88 1.883 2.915 4.385 2.914 7.045-.002 5.397-4.318 9.805-9.68 9.955l-.278.004c-1.542-.001-3.056-.357-4.424-1.036l-.339-.177L2 22.096l1.413-5.16c-.872-1.51-1.33-3.223-1.33-4.978C2.086 6.467 6.553 2 12.042 2zm.003 1.682c-4.565 0-8.278 3.713-8.28 8.276 0 1.452.376 2.87 1.094 4.12l.171.285.197.313-.836 3.054 3.133-.821.302.179c1.173.696 2.504 1.09 3.87 1.147l.343.007c4.565 0 8.278-3.713 8.28-8.277 0-2.212-.86-4.291-2.422-5.856-1.563-1.564-3.641-2.426-5.852-2.427zM8.516 7.359c.166 0 .332.001.477.009.153.007.358-.058.56.427.207.498.705 1.723.767 1.847.062.125.104.27.02.436-.082.166-.124.27-.248.415-.124.146-.261.325-.373.436-.125.124-.254.259-.11.508.146.25.645 1.064 1.385 1.724.95.847 1.752 1.11 2 1.235.25.124.395.103.54-.063.145-.166.622-.726.788-.975.166-.25.332-.208.56-.125.228.083 1.451.685 1.7.81.249.124.415.187.477.29.062.104.062.602-.145 1.184-.208.58-1.202 1.111-1.68 1.183-.429.064-.971.09-1.567-.099-.361-.115-.825-.268-1.419-.524-2.496-1.078-4.126-3.591-4.25-3.757-.125-.166-1.016-1.35-1.016-2.574 0-1.225.643-1.827.87-2.076.229-.249.498-.311.664-.311z" transform="translate(-708 -2119) translate(0 1830) translate(664 289) translate(44)"/>
                    </g>
                </g>
            </g>
        </g>
    </g>
</svg>
